<?xml version="1.0" standalone="no"?>
<!DOCTYPE svg PUBLIC "-//W3C//DTD SVG 20010904//EN"
 "http://www.w3.org/TR/2001/REC-SVG-20010904/DTD/svg10.dtd">
<svg version="1.0" xmlns="http://www.w3.org/2000/svg"
 width="1080.000000pt" height="1080.000000pt" viewBox="0 0 1080.000000 1080.000000"
 preserveAspectRatio="xMidYMid meet">
<metadata>
Created by potrace 1.11, written by Peter Selinger 2001-2013
</metadata>
<g transform="translate(0.000000,1080.000000) scale(0.100000,-0.100000)"
fill="#000000" stroke="none">
<path d="M0 5400 l0 -5400 5400 0 5400 0 0 5400 0 5400 -5400 0 -5400 0 0
-5400z m5081 5130 c76 -26 125 -57 168 -106 35 -39 73 -116 85 -168 l7 -29
-43 7 c-101 16 -206 92 -252 185 -25 48 -45 131 -32 131 4 0 34 -9 67 -20z
m648 -20 c-15 -65 -50 -131 -92 -173 -40 -40 -136 -90 -194 -102 -40 -8 -42 1
-12 80 36 95 158 205 246 221 15 3 30 7 32 10 2 2 10 4 17 4 9 0 10 -10 3 -40z
m-899 -80 c-7 -30 -20 -71 -30 -90 -33 -65 -122 -139 -204 -170 l-29 -11 6 62
c10 117 90 233 194 283 21 11 45 22 53 26 21 10 25 -31 10 -100z m1126 85
c112 -47 187 -141 212 -266 8 -43 13 -82 9 -85 -10 -11 -113 43 -156 82 -55
49 -87 104 -105 184 -26 107 -23 112 40 85z m660 -122 c-12 -47 -75 -132 -122
-166 -60 -42 -123 -66 -196 -74 l-60 -6 17 38 c29 71 81 131 155 179 37 25
136 54 184 55 26 1 28 -1 22 -26z m-2305 -17 c67 -34 122 -86 160 -151 43 -75
41 -79 -36 -72 -139 13 -247 93 -301 224 l-15 36 68 -5 c48 -4 86 -14 124 -32z
m-361 -84 c0 -140 -40 -222 -145 -300 l-59 -44 -9 29 c-20 71 16 211 74 284
30 39 115 108 132 109 4 0 7 -35 7 -78z m2957 -5 c66 -64 95 -128 101 -229 2
-42 2 -84 -2 -93 -5 -15 -9 -15 -37 2 -53 31 -135 128 -153 180 -20 57 -31
160 -22 197 6 26 7 26 34 9 15 -9 50 -39 79 -66z m-1918 17 c50 -20 71 -51 71
-104 0 -79 -88 -131 -162 -96 -87 41 -84 163 5 201 41 18 39 18 86 -1z m885
-35 c25 -28 28 -37 23 -78 -12 -109 -164 -137 -210 -38 -23 47 -21 68 6 108
44 65 126 69 181 8z m-1704 -114 c41 -21 60 -53 60 -101 0 -51 -27 -88 -76
-104 -78 -26 -142 14 -151 94 -7 55 13 91 60 111 42 18 71 18 107 0z m2521 -8
c64 -43 74 -119 22 -171 -79 -79 -215 -9 -196 100 15 80 105 118 174 71z
m-1361 -48 c-36 -136 -153 -244 -286 -266 l-36 -6 7 34 c12 55 65 147 108 185
52 47 193 111 215 98 2 -1 -2 -22 -8 -45z m234 -7 c80 -44 153 -146 169 -238
l6 -32 -42 10 c-146 32 -262 146 -283 277 l-7 41 54 -16 c30 -9 76 -28 103
-42z m-2079 9 c72 -32 123 -69 161 -120 42 -54 35 -61 -57 -61 -81 0 -150 20
-212 61 -44 29 -117 110 -117 130 0 27 157 20 225 -10z m3983 20 l23 -6 -29
-40 c-68 -94 -164 -146 -284 -153 -101 -6 -113 -1 -94 35 19 37 93 107 136
129 78 39 181 54 248 35z m-2733 -58 c95 -33 202 -138 221 -217 l7 -29 -63 6
c-77 9 -153 42 -210 93 -45 41 -100 127 -100 157 0 17 6 18 52 12 29 -4 71
-14 93 -22z m1425 17 c0 -26 -54 -114 -93 -151 -52 -51 -116 -84 -193 -99 -94
-19 -100 -15 -69 46 39 79 89 130 162 166 80 39 193 61 193 38z m-1640 -22
c-1 -41 -33 -157 -54 -192 -34 -58 -97 -113 -163 -142 -29 -13 -56 -24 -59
-24 -11 0 8 105 29 160 14 38 37 72 76 110 73 72 171 122 171 88z m1798 -25
c105 -60 169 -157 179 -272 3 -34 3 -61 0 -61 -16 0 -65 24 -112 56 -86 56
-155 183 -155 281 0 31 2 34 23 28 12 -4 41 -18 65 -32z m-3198 -44 c18 -73 8
-183 -21 -244 -13 -27 -45 -72 -72 -100 -46 -47 -49 -49 -60 -30 -7 12 -12 62
-12 125 0 94 3 111 27 160 26 53 99 140 117 140 5 0 15 -23 21 -51z m4580 5
c82 -89 115 -209 91 -327 -7 -31 -16 -59 -20 -62 -11 -6 -77 60 -107 108 -35
54 -57 150 -50 211 8 62 25 116 36 116 4 0 26 -21 50 -46z m-3728 -124 c74
-23 146 -73 189 -133 26 -36 28 -42 13 -50 -28 -16 -174 -3 -225 20 -53 24
-111 73 -151 128 l-29 40 23 6 c45 13 117 9 180 -11z m3004 8 c1 -2 -13 -25
-32 -51 -43 -59 -138 -122 -207 -137 -62 -14 -169 -10 -174 6 -2 6 18 36 46
66 49 54 128 104 185 119 27 7 174 4 182 -3z m-3600 -14 c84 -40 83 -158 -1
-198 -82 -39 -165 11 -165 100 0 40 5 51 36 80 40 39 76 43 130 18z m4105 -7
c79 -53 78 -150 -1 -189 -56 -28 -97 -23 -136 16 -97 97 24 249 137 173z
m-3769 -50 c13 -109 -25 -220 -98 -293 -42 -43 -101 -80 -111 -70 -3 3 -5 38
-5 78 1 122 42 206 140 283 31 25 60 45 63 45 4 0 9 -19 11 -43z m3435 -35
c75 -73 118 -204 99 -306 l-7 -37 -32 22 c-86 59 -136 123 -161 209 -16 53
-22 171 -10 183 10 10 60 -23 111 -71z m-4367 -99 c36 -17 81 -48 100 -68 41
-42 36 -48 -50 -66 -69 -14 -150 -5 -217 25 -57 27 -148 105 -136 117 18 17
83 28 158 26 68 -2 91 -7 145 -34z m5446 26 c24 -6 44 -15 44 -19 0 -5 -23
-29 -52 -54 -66 -58 -146 -88 -235 -88 -71 0 -153 17 -153 32 0 16 84 80 144
110 50 25 71 30 133 30 41 0 94 -5 119 -11z m-5847 -255 c18 -99 -21 -247 -80
-300 -26 -23 -36 -11 -60 68 -38 123 -13 252 65 349 l21 26 22 -41 c12 -23 26
-69 32 -102z m6080 91 c47 -66 64 -119 64 -210 0 -78 -29 -185 -54 -200 -14
-9 -86 110 -99 166 -17 69 -8 172 20 237 12 28 26 52 30 52 3 0 21 -20 39 -45z
m-5138 -7 c30 -15 75 -46 100 -69 43 -41 44 -41 20 -50 -13 -5 -53 -14 -90
-20 -85 -14 -169 5 -248 57 -49 33 -92 79 -82 88 19 16 79 25 154 23 75 -2 99
-7 146 -29z m4383 13 l29 -12 -29 -30 c-83 -87 -209 -130 -326 -111 -88 13
-100 23 -68 57 30 32 110 84 158 102 43 16 190 12 236 -6z m-4733 -82 c4 -13
7 -61 8 -106 1 -110 -23 -175 -94 -251 l-53 -57 -13 30 c-8 17 -13 70 -14 125
0 85 3 101 28 148 32 61 105 144 121 139 6 -2 13 -14 17 -28z m4920 -71 c22
-34 43 -83 50 -115 11 -58 6 -153 -12 -200 l-9 -24 -29 20 c-42 30 -98 118
-117 185 -18 63 -16 157 5 209 l11 28 31 -22 c17 -12 49 -49 70 -81z m-5231
43 c92 -67 42 -201 -75 -201 -104 0 -150 126 -72 198 39 36 100 38 147 3z
m5564 4 c51 -34 60 -119 19 -165 -51 -56 -150 -51 -186 9 -33 56 -13 137 41
165 32 17 92 13 126 -9z m-6085 -302 c41 -21 76 -43 78 -49 5 -16 -71 -50
-143 -64 -92 -18 -208 11 -286 73 -26 21 -23 26 29 48 119 51 211 49 322 -8z
m6762 17 c83 -31 85 -34 50 -59 -67 -48 -142 -74 -215 -75 -72 -1 -162 22
-200 50 -20 14 -20 14 0 30 32 25 126 68 169 75 58 11 135 2 196 -21z m-6223
-55 c29 -13 67 -34 84 -46 l31 -22 -44 -22 c-107 -54 -221 -56 -325 -5 -60 30
-101 57 -93 63 17 14 110 50 143 56 66 12 146 2 204 -24z m5592 25 c61 -14
141 -51 137 -64 -2 -6 -38 -29 -81 -51 -74 -38 -84 -40 -165 -40 -72 0 -95 5
-145 28 -56 26 -58 28 -42 46 19 21 118 71 154 77 15 3 29 7 31 10 7 7 64 4
111 -6z m-5959 -167 c25 -67 30 -184 11 -250 -13 -44 -70 -134 -88 -140 -6 -2
-22 20 -35 49 -34 75 -34 211 -1 282 25 55 68 116 82 116 5 0 18 -26 31 -57z
m6181 40 c66 -77 97 -197 78 -298 -12 -60 -44 -135 -58 -135 -16 0 -81 112
-92 161 -17 68 -8 182 18 242 23 51 31 56 54 30z m-6810 -40 c47 -72 60 -124
56 -220 -4 -90 -37 -193 -62 -193 -16 0 -62 77 -81 138 -24 74 -17 179 18 255
14 31 30 57 35 57 5 0 20 -17 34 -37z m7447 -4 c61 -125 45 -289 -38 -394
l-19 -25 -14 23 c-55 84 -71 233 -33 317 24 56 65 120 76 120 5 0 17 -18 28
-41z m-7135 -43 c46 -19 66 -52 66 -106 0 -63 -38 -101 -108 -108 -44 -4 -53
-1 -82 25 -63 57 -45 170 32 192 46 13 54 13 92 -3z m6849 0 c62 -26 87 -82
64 -145 -31 -86 -169 -94 -212 -11 -31 59 -6 129 53 154 46 19 55 19 95 2z
m-6758 -335 c40 -11 105 -43 105 -51 0 -13 -108 -70 -164 -86 -67 -19 -132
-15 -211 11 -76 26 -84 37 -43 68 92 69 205 90 313 58z m6795 -11 c65 -26 133
-71 122 -82 -4 -4 -35 -18 -68 -30 -88 -33 -200 -31 -277 5 -32 14 -69 35 -83
46 l-25 20 25 16 c72 47 219 59 306 25z m525 -26 c39 -8 138 -58 154 -78 12
-14 7 -19 -34 -37 -84 -37 -166 -46 -243 -26 -60 16 -162 70 -162 86 0 13 44
33 113 51 68 17 104 18 172 4z m-7860 -14 c81 -28 91 -38 60 -61 -13 -11 -50
-32 -82 -47 -50 -23 -71 -27 -148 -27 -73 0 -100 5 -142 24 -29 13 -53 27 -53
31 0 13 34 37 95 68 51 26 71 31 136 32 51 0 95 -7 134 -20z m183 -137 c69
-109 78 -237 26 -354 -15 -32 -29 -59 -33 -59 -3 0 -16 15 -28 33 -69 101 -88
214 -54 316 19 55 47 111 56 111 2 0 17 -21 33 -47z m7362 -18 c19 -39 26 -69
28 -135 4 -97 -17 -171 -66 -229 l-28 -34 -16 25 c-46 69 -63 219 -34 300 20
56 66 130 79 126 7 -2 23 -26 37 -53z m-7929 -169 c21 -34 44 -85 50 -116 13
-61 6 -152 -14 -201 l-13 -33 -41 43 c-53 55 -88 122 -103 194 -11 56 -10 72
11 169 l11 48 30 -22 c17 -11 48 -49 69 -82z m8539 34 c17 -78 8 -165 -23
-233 -27 -59 -91 -137 -112 -137 -20 0 -38 97 -33 176 3 44 13 86 27 117 26
52 108 150 121 142 4 -2 13 -32 20 -65z m-8250 35 c87 -45 93 -157 10 -200
-67 -35 -139 -10 -165 58 -15 40 -15 47 -1 80 16 39 67 77 104 77 13 0 36 -7
52 -15z m7950 0 c41 -21 60 -53 60 -102 0 -64 -39 -104 -108 -111 -49 -4 -54
-2 -87 31 -55 55 -47 129 18 175 37 26 76 28 117 7z m-7745 -316 l49 -12 -51
-47 c-94 -86 -194 -118 -312 -99 -36 5 -70 14 -75 19 -22 22 104 118 187 142
52 15 127 14 202 -3z m7688 -19 c26 -12 71 -43 99 -68 l51 -46 -34 -14 c-54
-23 -184 -19 -249 6 -52 20 -160 103 -160 122 0 16 84 29 165 26 58 -2 93 -9
128 -26z m-3735 -122 c23 -11 67 -42 96 -69 212 -194 219 -507 16 -709 -58
-59 -152 -115 -177 -106 -8 3 -12 2 -9 -3 3 -5 -3 -11 -13 -14 -23 -6 -38 21
-16 29 8 4 12 10 9 15 -3 5 -9 7 -14 4 -5 -3 -12 -1 -15 5 -4 6 -3 10 2 9 4
-1 15 -1 23 0 11 1 12 3 3 9 -8 5 9 21 49 47 132 87 200 207 200 356 0 73 -11
118 -48 189 -27 55 -104 131 -161 159 -44 22 -63 41 -41 41 9 0 9 3 2 8 -6 4
-13 19 -16 34 -5 26 -4 27 31 22 20 -3 55 -15 79 -26z m-4526 1 c29 -6 57 -14
61 -18 13 -13 -80 -91 -141 -119 -36 -16 -81 -28 -121 -30 -65 -5 -171 13
-171 28 0 9 68 71 104 95 36 24 134 54 178 54 20 1 61 -4 90 -10z m8811 -27
c61 -31 137 -92 137 -111 0 -16 -103 -34 -171 -29 -40 2 -85 14 -120 30 -54
25 -139 95 -139 115 0 16 86 30 163 28 52 -2 81 -9 130 -33z m-8622 -79 c68
-78 93 -143 94 -243 0 -47 -6 -102 -14 -123 l-13 -39 -45 44 c-66 64 -105 152
-106 235 -1 70 19 173 33 173 5 0 27 -21 51 -47z m8280 -21 c15 -75 5 -171
-24 -236 -24 -52 -95 -136 -114 -136 -16 0 -33 81 -33 154 0 41 7 85 19 116
26 69 113 176 133 164 4 -2 12 -30 19 -62z m-4103 -58 c33 -5 82 -73 82 -114
0 -21 -30 -27 -77 -14 -19 5 -39 47 -33 70 1 4 -4 11 -12 15 -10 6 -8 9 7 9
11 0 16 4 10 8 -14 10 -16 44 -1 35 6 -4 17 -8 24 -9z m-4408 -99 c41 -21 60
-53 60 -103 0 -108 -147 -152 -207 -62 -40 59 -21 133 41 164 39 20 70 20 106
1z m8804 -24 c26 -26 31 -39 30 -76 -1 -53 -28 -88 -81 -106 -95 -31 -185 71
-138 157 38 70 131 82 189 25z m-9103 -88 c71 -75 92 -128 93 -235 1 -47 -2
-90 -6 -94 -11 -10 -85 44 -124 91 -60 73 -90 178 -78 272 l6 53 30 -18 c16
-9 52 -41 79 -69z m9374 -14 c0 -100 -21 -163 -74 -222 -44 -49 -110 -99 -122
-91 -5 3 -9 41 -9 84 0 87 15 138 62 207 31 46 115 116 132 110 7 -2 11 -37
11 -88z m-4607 -49 c16 -24 22 -47 22 -89 0 -48 -4 -62 -31 -94 -17 -20 -35
-37 -41 -37 -6 0 -19 -6 -27 -14 -14 -13 -16 -10 -15 31 1 25 7 62 14 82 10
32 10 43 -5 71 -12 23 -13 30 -3 24 10 -6 11 -4 3 7 -9 12 -11 47 -6 81 2 15
67 -30 89 -62z m-994 11 c162 -79 282 -262 294 -448 9 -142 -29 -265 -113
-372 -56 -71 -101 -106 -195 -153 -77 -39 -100 -45 -100 -27 0 5 5 7 10 4 6
-3 10 -1 10 4 0 6 -3 11 -8 11 -4 0 -8 14 -8 30 -2 27 5 33 59 63 117 62 202
170 232 298 21 90 19 146 -10 236 -41 131 -106 208 -236 281 -31 17 -56 38
-56 46 0 8 5 14 11 13 13 -3 15 26 1 36 -21 16 65 -1 109 -22z m2155 16 c12
-9 13 -9 7 1 -11 18 -2 15 67 -19 121 -61 230 -198 275 -343 25 -83 20 -226
-10 -312 -48 -137 -147 -251 -269 -310 -98 -48 -107 -50 -101 -19 2 14 1 25
-4 23 -5 -2 -10 2 -11 7 -2 6 3 10 10 10 6 0 11 7 10 15 -2 9 19 27 49 44 242
136 313 445 153 668 -44 60 -79 92 -148 133 -34 21 -51 38 -52 53 -1 12 -9 30
-18 40 -15 17 -15 18 5 19 12 1 29 -3 37 -10z m-40 -55 c-1 -15 -2 -15 -6 1
-2 9 -9 14 -15 11 -7 -4 -8 -2 -4 5 10 15 26 4 25 -17z m-5331 -71 c21 -1 22
-2 8 -29 -25 -49 -99 -114 -163 -144 -67 -32 -195 -49 -227 -31 -15 8 -13 15
24 62 53 67 146 128 208 136 26 4 54 8 62 9 8 2 26 2 40 1 14 -2 35 -4 48 -4z
m8307 -7 c52 -11 118 -51 169 -102 64 -64 74 -90 40 -98 -70 -18 -202 15 -275
67 -31 22 -109 114 -109 129 0 17 99 19 175 4z m-2963 -79 c4 -5 8 -38 8 -72
l0 -63 68 0 c40 0 73 -5 80 -12 14 -14 17 -264 4 -285 -4 -7 -37 -13 -77 -15
l-70 -3 -5 -68 c-4 -53 -10 -72 -24 -83 -28 -20 -66 -18 -66 4 0 12 2 14 8 4
5 -7 8 37 7 97 -1 60 2 115 6 122 4 7 35 15 68 17 l61 4 0 64 0 64 -59 0 c-37
0 -63 5 -68 13 -12 19 -13 148 -1 170 9 17 8 19 -6 14 -9 -4 -16 -2 -16 3 0 6
5 10 11 10 5 0 8 4 4 9 -3 5 2 17 11 26 16 16 35 9 56 -20z m-2246 -63 c92
-60 194 -152 194 -174 0 -29 -28 -47 -72 -48 l-38 0 0 -119 c0 -143 -4 -151
-87 -151 -49 0 -54 2 -42 16 10 13 10 17 -2 25 -10 6 -11 11 -3 17 24 16 34
54 34 130 0 60 -4 83 -16 93 -8 7 -13 20 -11 29 2 10 0 25 -5 34 -5 9 -6 16
-1 15 35 -6 45 19 17 42 -10 8 -13 21 -9 36 3 13 1 23 -5 23 -5 0 -10 5 -10
11 0 5 5 7 11 4 13 -9 8 27 -6 37 -7 5 -7 8 0 8 6 0 29 -12 51 -28z m-3607
-91 c11 -7 10 -14 -8 -39 -38 -54 -121 -120 -174 -140 -69 -26 -217 -35 -217
-13 0 21 81 110 127 139 78 50 230 80 272 53z m9386 -25 c61 -28 116 -74 155
-131 l29 -42 -47 -6 c-114 -13 -227 28 -303 110 -62 66 -75 90 -51 97 39 12
166 -4 217 -28z m-9207 -71 c29 -26 62 -69 78 -100 28 -59 42 -156 30 -219
l-7 -37 -31 18 c-52 30 -125 119 -147 178 -20 54 -30 202 -15 218 10 9 35 -6
92 -58z m8909 -51 c-8 -117 -54 -199 -146 -266 l-56 -39 -7 52 c-8 69 5 145
35 205 25 48 102 131 142 152 29 15 38 -16 32 -104z m-9097 -149 c52 -47 45
-140 -14 -176 -38 -23 -103 -25 -134 -3 -27 19 -52 65 -52 97 0 37 41 91 80
103 39 13 93 3 120 -21z m9349 -6 c76 -76 25 -189 -86 -189 -33 0 -50 7 -75
29 -29 26 -33 35 -33 80 0 41 5 55 26 77 28 27 78 43 117 36 13 -3 36 -17 51
-33z m-4517 -60 c53 -59 80 -120 86 -199 6 -84 -13 -146 -68 -218 -22 -29 -40
-56 -40 -60 0 -4 16 -16 35 -26 52 -28 123 -108 153 -174 27 -56 27 -60 30
-308 3 -223 1 -253 -13 -268 -15 -14 -38 -16 -158 -14 l-142 3 0 34 c0 54 14
61 121 61 l94 0 0 195 c0 171 -2 201 -20 249 -24 62 -95 136 -153 157 -20 7
-37 17 -37 22 0 5 -6 7 -13 4 -8 -3 -14 1 -14 9 0 7 4 11 8 8 4 -2 10 0 14 6
3 5 0 10 -7 10 -10 0 -10 2 1 9 7 5 10 14 7 20 -4 6 -1 11 6 12 10 0 10 2 0 6
-6 2 -10 9 -6 14 3 5 0 9 -5 9 -6 0 -11 5 -11 12 0 6 3 9 6 6 11 -11 72 64 91
111 27 67 24 82 -22 107 -54 30 -67 43 -61 61 3 8 3 20 -1 26 -16 25 -10 33
23 29 42 -5 43 8 3 42 -17 14 -27 26 -24 26 4 0 1 7 -6 17 -11 13 -11 17 -1
20 6 3 12 16 12 29 0 24 0 24 38 9 20 -8 54 -33 74 -56z m-5201 -35 c49 -24
130 -107 156 -158 19 -36 28 -72 31 -124 l5 -73 -29 11 c-122 47 -215 171
-230 309 l-7 63 24 -7 c13 -4 36 -13 50 -21z m9987 -37 c-11 -138 -93 -248
-225 -303 l-36 -15 5 68 c7 87 38 154 103 218 44 44 123 94 149 95 5 0 6 -28
4 -63z m-9343 -89 c-13 -41 -67 -118 -108 -153 -49 -42 -133 -76 -204 -83 -61
-5 -63 -1 -32 59 61 121 177 194 312 198 35 1 38 -1 32 -21z m8750 8 c102 -27
175 -84 223 -174 18 -33 32 -64 32 -69 0 -17 -132 6 -186 32 -78 38 -143 109
-182 198 -11 27 -11 27 26 27 20 0 60 -6 87 -14z m-3170 -66 c3 -6 -1 -7 -9
-4 -18 7 -21 14 -7 14 6 0 13 -4 16 -10z m-6045 -250 c0 -28 -53 -110 -99
-153 -63 -59 -126 -87 -210 -95 -63 -5 -63 -5 -56 19 11 35 60 111 92 140 36
33 90 65 139 83 46 17 134 21 134 6z m9742 -28 c87 -41 149 -105 183 -186 l16
-39 -68 5 c-140 10 -251 95 -303 232 l-11 29 61 -6 c37 -3 84 -17 122 -35z
m-256 -33 c-11 -96 -42 -166 -98 -222 -46 -46 -152 -106 -166 -93 -11 11 15
134 39 183 29 61 102 134 165 167 27 14 53 25 58 26 5 0 5 -27 2 -61z m-9330
22 c68 -40 138 -119 163 -187 22 -58 28 -154 11 -154 -42 0 -156 88 -197 152
-42 67 -70 218 -40 218 6 0 35 -13 63 -29z m4742 -156 c-3 -3 -9 2 -12 12 -6
14 -5 15 5 6 7 -7 10 -15 7 -18z m30 -58 c7 -18 12 -41 12 -51 0 -20 -28 -76
-38 -76 -4 0 -7 31 -7 69 0 40 4 67 9 63 5 -3 7 2 3 11 -3 10 -3 17 1 17 5 0
13 -15 20 -33z m-4918 -22 c16 -8 36 -25 44 -37 23 -32 20 -100 -4 -131 -48
-60 -152 -57 -190 6 -24 39 -25 68 -4 113 28 59 94 80 154 49z m9650 0 c41
-21 60 -53 60 -103 0 -115 -165 -151 -214 -47 -20 42 -20 70 0 104 33 57 97
75 154 46z m-3579 -110 c41 -22 69 -71 69 -123 l0 -44 30 26 c96 80 226 44
261 -72 10 -35 10 -48 -3 -80 -27 -69 -345 -508 -405 -559 -30 -27 -59 -47
-65 -45 -5 1 -7 -2 -4 -7 4 -5 2 -12 -3 -15 -5 -3 -11 1 -15 9 -3 8 -1 17 4
20 6 4 10 12 10 18 0 7 -5 4 -11 -5 -5 -10 -15 -18 -21 -18 -9 0 -9 3 0 12 14
14 16 32 2 23 -6 -4 -7 2 -1 17 5 13 15 22 23 20 7 -2 10 0 5 4 -4 4 8 24 27
43 18 20 83 108 144 196 60 88 132 193 161 234 28 41 51 83 51 93 0 35 -19 58
-49 58 -24 0 -49 -24 -166 -160 -76 -88 -144 -160 -152 -160 -8 0 -11 -4 -8
-10 4 -6 -1 -7 -11 -3 -13 5 -15 3 -9 -7 5 -8 4 -11 -3 -7 -14 9 -9 36 9 49
12 8 11 9 -2 5 -20 -6 -44 29 -27 39 6 4 8 3 5 -3 -4 -6 0 -14 8 -17 12 -4 14
0 9 18 -4 18 0 28 17 40 13 9 19 16 14 16 -5 0 3 13 18 28 18 19 29 43 33 73
3 24 9 66 14 92 15 74 13 105 -9 117 -23 12 -51 -10 -51 -40 0 -10 -5 -22 -10
-25 -6 -4 -8 -10 -5 -15 3 -5 1 -11 -5 -15 -5 -3 -9 -16 -9 -28 1 -29 -4 -48
-19 -72 -12 -19 -13 -19 -7 3 5 15 1 24 -10 28 -9 4 -13 10 -8 13 15 11 44 71
34 71 -5 0 -12 -6 -14 -12 -4 -10 -6 -10 -6 -1 -1 6 9 19 22 29 15 11 16 15 5
11 -10 -4 -18 -2 -18 3 0 6 5 10 12 10 6 0 4 6 -7 13 -14 11 -15 16 -5 22 9 6
11 4 5 -5 -5 -9 -4 -11 3 -6 7 4 12 19 12 34 -1 25 -2 25 -14 10 -16 -22 -23
-23 -23 -4 0 8 3 14 6 13 3 0 21 13 40 31 37 36 74 41 122 17z m-1181 -9 c0
-2 -7 -7 -16 -10 -8 -3 -12 -2 -9 4 6 10 25 14 25 6z m-5145 -91 c25 -14 62
-42 81 -62 42 -42 94 -145 94 -187 0 -27 -2 -28 -32 -22 -53 11 -133 52 -177
91 -44 40 -98 138 -107 197 l-6 37 51 -14 c28 -7 72 -25 96 -40z m573 13 c-30
-137 -119 -232 -254 -273 -66 -20 -67 -20 -59 18 26 124 121 235 237 277 82
30 88 28 76 -22z m9019 2 c103 -47 179 -143 199 -254 l7 -38 -34 7 c-55 11
-131 50 -176 89 -46 40 -100 138 -110 199 -6 38 -6 38 23 32 16 -4 57 -20 91
-35z m602 -11 c-30 -131 -152 -248 -288 -275 l-33 -7 7 34 c20 98 90 198 173
247 45 25 131 53 143 46 4 -2 3 -22 -2 -45z m-5812 -203 c40 -20 67 -53 178
-211 173 -244 190 -295 189 -553 -1 -95 -4 -175 -6 -178 -3 -2 -25 -6 -49 -7
l-44 -2 -6 195 c-6 208 -13 247 -66 340 -37 65 -225 330 -234 330 -4 0 -14 3
-22 6 -20 7 -57 -30 -57 -56 0 -12 29 -69 64 -128 64 -106 86 -162 86 -214 0
-27 -2 -28 -50 -28 -52 0 -54 2 -51 50 2 29 -33 80 -54 80 -8 0 -17 5 -21 12
-5 8 -2 9 9 5 11 -4 17 -1 17 9 0 8 -4 13 -8 10 -4 -2 -14 -1 -22 5 -13 7 -12
9 2 9 15 0 16 4 8 26 -15 40 -12 82 8 94 16 11 16 11 -2 6 -14 -5 -16 -3 -9 6
11 14 14 50 4 43 -11 -6 -7 80 3 87 6 4 4 10 -7 14 -9 3 -17 11 -17 16 0 7 5
6 14 -1 10 -8 16 -8 25 2 6 8 8 17 4 21 -23 23 75 33 114 12z m-122 -16 c3 -5
1 -10 -4 -10 -6 0 -11 5 -11 10 0 6 2 10 4 10 3 0 8 -4 11 -10z m-4081 -157
c-30 -144 -96 -223 -231 -279 -85 -35 -93 -33 -82 16 25 109 100 204 199 252
94 45 122 48 114 11z m166 1 c122 -46 209 -146 235 -273 l7 -33 -33 7 c-19 3
-62 20 -96 36 -100 48 -167 137 -197 262 -8 33 -5 33 84 1z m9445 -11 c-24
-136 -137 -251 -274 -282 -40 -9 -41 -8 -41 18 0 32 40 119 76 167 35 45 101
91 167 115 76 27 80 26 72 -18z m192 2 c102 -46 190 -155 209 -259 l7 -39 -36
7 c-139 26 -261 151 -284 292 -6 34 -5 35 23 28 16 -3 52 -17 81 -29z m-5737
10 c0 -12 -19 -12 -23 0 -4 9 -1 12 9 8 7 -3 14 -7 14 -8z m-3979 -268 c44
-30 61 -63 53 -107 -9 -51 -22 -70 -59 -86 -72 -30 -144 -4 -165 60 -34 105
80 194 171 133z m9633 8 c86 -41 86 -159 0 -200 -78 -37 -164 13 -164 96 0 90
82 143 164 104z m-9314 -125 c0 -45 -20 -131 -40 -171 -27 -52 -91 -111 -161
-149 l-62 -33 5 69 c7 89 38 155 104 220 49 48 112 90 142 93 7 0 12 -11 12
-29z m8951 4 c47 -23 134 -110 156 -155 22 -45 51 -184 40 -195 -10 -10 -99
39 -146 83 -58 51 -96 120 -110 197 -16 89 -15 99 12 90 12 -3 34 -13 48 -20z
m-3354 -60 c-3 -3 -12 -4 -19 -1 -8 3 -5 6 6 6 11 1 17 -2 13 -5z m0 -20 c-3
-3 -12 -4 -19 -1 -8 3 -5 6 6 6 11 1 17 -2 13 -5z m-6159 -46 c29 -11 72 -34
95 -52 43 -32 110 -123 122 -163 6 -21 3 -23 -33 -23 -88 0 -190 47 -258 118
-22 24 -84 132 -84 147 0 10 105 -8 158 -27z m10162 20 c-1 -33 -45 -105 -94
-153 -61 -59 -135 -93 -223 -102 -62 -7 -63 -3 -29 65 50 98 134 164 237 187
82 17 109 18 109 3z m-5936 -249 c6 -31 6 -32 -8 -16 -8 11 -12 25 -10 32 3 7
1 16 -5 20 -6 3 -11 11 -11 16 0 23 28 -20 34 -52z m-3769 -89 c94 -32 163
-92 210 -182 14 -26 25 -50 25 -54 0 -4 -28 -4 -63 -2 -137 11 -249 93 -303
223 l-14 35 43 0 c24 0 70 -9 102 -20z m9229 -2 c-20 -65 -82 -144 -145 -184
-67 -42 -219 -72 -219 -44 0 38 82 149 142 191 43 31 127 58 181 59 46 0 48
-1 41 -22z m-9448 -49 c-18 -156 -108 -271 -245 -314 -23 -7 -24 -7 -16 51 15
123 65 207 164 273 54 37 77 49 95 50 5 1 5 -26 2 -60z m9653 -3 c83 -61 130
-146 138 -250 l6 -68 -24 7 c-123 38 -223 168 -236 308 l-6 69 38 -16 c20 -9
58 -31 84 -50z m-9516 -210 c61 -25 84 -74 66 -140 -14 -52 -59 -78 -122 -73
-56 5 -83 26 -98 78 -15 49 11 104 61 131 42 22 51 22 93 4z m9347 -1 c89 -46
95 -156 10 -200 -50 -26 -98 -19 -136 19 -44 44 -47 99 -7 146 42 50 83 61
133 35z m-9002 -135 c-7 -123 -69 -225 -176 -290 l-30 -18 -6 47 c-17 130 50
271 164 343 54 34 55 33 48 -82z m8675 37 c65 -63 98 -133 104 -222 3 -40 3
-85 -1 -99 l-7 -27 -43 30 c-116 80 -185 232 -162 356 7 35 7 35 35 20 16 -8
49 -34 74 -58z m-9141 -190 c64 -29 118 -74 158 -133 35 -49 30 -54 -55 -54
-81 0 -174 33 -229 81 -60 53 -111 125 -93 133 30 14 167 -3 219 -27z m9722
24 c3 -5 -7 -26 -23 -47 -76 -103 -165 -153 -290 -161 -53 -4 -80 -2 -85 6
-14 21 45 96 126 159 35 28 124 51 195 52 39 0 74 -4 77 -9z m-3499 -246 c-55
-51 -98 -96 -95 -99 3 -3 33 -11 65 -18 40 -9 60 -18 60 -28 0 -10 -8 -14 -25
-12 -14 2 -54 5 -90 8 l-65 6 -140 -134 c-181 -172 -234 -252 -190 -288 8 -7
13 -16 10 -20 -8 -12 159 -9 210 5 77 21 153 49 230 86 134 64 125 61 131 44
4 -8 -6 -31 -21 -51 -15 -19 -25 -37 -22 -40 2 -3 43 25 91 61 97 72 127 80
164 40 27 -28 136 -65 191 -64 40 0 135 25 227 60 60 23 60 23 106 4 41 -17
47 -23 51 -56 6 -43 32 -83 65 -98 61 -29 179 2 368 95 61 30 117 54 123 54
48 0 -82 -84 -218 -141 -91 -38 -203 -62 -251 -54 -54 9 -99 41 -116 82 l-15
36 -42 -40 c-60 -56 -72 -64 -111 -73 -64 -14 -88 21 -62 90 5 13 -11 15 -111
15 -104 0 -124 3 -166 24 -26 13 -55 30 -63 39 -14 14 -20 13 -57 -7 -23 -12
-73 -46 -112 -76 -75 -59 -110 -74 -128 -56 -8 8 -8 20 1 44 7 18 12 36 12 39
0 3 -33 -8 -72 -24 -96 -39 -249 -78 -308 -78 -77 0 -148 35 -151 74 0 6 -2
25 -2 41 -2 26 -5 30 -27 27 -50 -6 -70 -11 -81 -18 -7 -4 -10 -2 -7 6 4 13
24 20 61 23 9 1 17 4 17 8 0 4 13 9 30 12 21 5 69 47 167 148 76 77 140 145
141 150 2 6 -32 7 -85 3 -83 -6 -87 -5 -72 11 9 9 32 18 50 20 166 12 167 13
243 85 128 122 168 152 180 140 8 -9 -15 -36 -89 -105z m-5755 -6 c58 -14 142
-71 187 -127 24 -29 43 -57 43 -61 0 -13 -87 -18 -148 -9 -71 11 -138 47 -188
100 -42 44 -74 87 -74 100 0 16 109 15 180 -3z m8747 6 c2 -1 -11 -23 -28 -48
-67 -102 -175 -156 -307 -157 l-83 0 18 31 c52 88 159 162 255 177 44 7 136 5
145 -3z m-9011 -229 c-20 -67 -73 -137 -139 -181 l-52 -35 -3 81 c-3 98 13
154 66 224 21 28 60 65 87 83 l50 34 3 -77 c2 -48 -3 -97 -12 -129z m9133 177
c103 -76 152 -165 158 -283 5 -97 -3 -110 -50 -81 -88 54 -153 164 -164 274
-6 63 1 117 14 117 3 0 22 -12 42 -27z m-8600 -237 c18 -72 14 -178 -10 -240
-18 -50 -99 -156 -119 -156 -17 0 -34 77 -34 155 0 66 4 90 26 137 24 52 101
148 118 148 4 0 13 -20 19 -44z m8158 -90 c26 -47 28 -59 28 -156 -1 -63 -6
-117 -14 -135 l-13 -30 -43 48 c-92 101 -126 231 -91 351 l17 59 44 -43 c24
-23 56 -65 72 -94z m-8483 100 c44 -18 66 -51 66 -98 0 -75 -45 -118 -125
-118 -54 0 -105 53 -105 108 0 46 29 88 74 108 40 17 49 17 90 0z m8770 0 c46
-19 66 -51 66 -108 0 -69 -45 -108 -124 -108 -94 0 -139 126 -68 192 40 38 76
45 126 24z m-3650 -224 c3 -5 -1 -9 -9 -9 -8 0 -12 4 -9 9 3 4 7 8 9 8 2 0 6
-4 9 -8z m-5149 -106 c50 -23 145 -99 145 -117 0 -15 -106 -31 -176 -28 -84 5
-159 39 -223 100 -37 36 -41 43 -27 51 60 34 201 31 281 -6z m8992 13 c18 -6
33 -14 33 -19 0 -16 -84 -80 -139 -107 -41 -20 -74 -28 -135 -31 -80 -4 -166
10 -166 28 0 13 100 94 139 114 19 9 48 19 65 22 17 3 32 7 35 9 7 8 133 -4
168 -16z m-8427 -166 c36 -18 82 -50 104 -72 l39 -40 -39 -10 c-151 -40 -274
-10 -371 89 -18 19 -33 37 -33 40 0 16 71 29 150 27 74 -2 94 -6 150 -34z
m7866 26 c24 -6 44 -15 44 -19 0 -15 -91 -89 -134 -110 -64 -31 -144 -42 -215
-31 -95 15 -98 20 -47 70 64 63 153 100 239 101 38 0 88 -5 113 -11z m-8225
-96 c7 -21 13 -74 13 -118 0 -66 -4 -90 -26 -137 -24 -52 -101 -148 -118 -148
-14 0 -33 101 -32 164 1 67 20 130 53 179 28 40 81 97 90 97 4 0 13 -17 20
-37z m8424 -51 c24 -37 49 -89 56 -115 13 -52 7 -164 -10 -210 -10 -27 -11
-27 -36 -11 -34 22 -102 127 -116 177 -14 51 -7 193 10 225 17 32 42 15 96
-66z m-546 -147 c35 -81 30 -214 -11 -300 -12 -25 -25 -45 -29 -45 -13 0 -67
95 -84 148 -25 74 -17 179 18 256 l27 59 33 -44 c18 -24 39 -57 46 -74z
m-7332 68 c62 -112 45 -287 -36 -383 l-29 -35 -29 60 c-25 53 -28 71 -28 155
0 81 4 102 24 140 30 57 60 100 70 100 4 0 17 -17 28 -37z m-265 -72 c36 -40
44 -74 27 -118 -38 -98 -192 -94 -219 6 -31 117 113 201 192 112z m7931 -11
c63 -70 8 -180 -91 -180 -68 0 -111 42 -112 108 0 58 14 80 62 102 52 23 103
12 141 -30z m99 -312 l53 -24 -44 -32 c-53 -39 -156 -72 -221 -72 -45 0 -159
29 -189 49 -33 21 125 103 219 113 47 6 129 -10 182 -34z m-7990 -3 c31 -15
67 -38 78 -50 l22 -23 -59 -22 c-119 -45 -237 -36 -336 26 -32 20 -57 39 -57
44 0 7 75 43 115 53 11 3 56 5 100 3 64 -2 91 -8 137 -31z m553 -41 c44 -18
105 -60 105 -73 0 -10 -61 -36 -115 -51 -91 -23 -203 0 -290 60 l-48 33 38 19
c89 46 217 51 310 12z m6830 11 c28 -8 59 -20 69 -28 19 -14 17 -16 -24 -46
-63 -46 -167 -75 -244 -69 -59 5 -166 42 -166 58 0 11 90 67 127 81 81 28 149
29 238 4z m222 -195 c24 -47 27 -67 28 -145 0 -77 -4 -98 -27 -147 -15 -32
-31 -58 -36 -58 -16 0 -60 76 -82 139 -31 93 -26 161 23 274 l20 48 23 -28
c13 -15 36 -53 51 -83z m-7425 47 c16 -31 23 -65 26 -132 5 -104 -16 -175 -68
-235 -34 -40 -37 -38 -70 48 -14 36 -20 77 -20 130 0 65 5 87 31 142 33 71 57
102 70 94 5 -3 19 -24 31 -47z m559 -30 c62 -89 79 -176 55 -280 -9 -37 -23
-81 -31 -98 l-16 -30 -23 28 c-13 15 -36 53 -52 83 -26 49 -29 65 -29 150 0
79 4 104 24 148 13 28 26 52 30 52 3 0 22 -24 42 -53z m6271 15 c29 -67 39
-150 27 -216 -16 -88 -83 -207 -109 -191 -5 3 -19 38 -31 76 -27 90 -23 192
11 259 25 51 67 110 78 110 4 0 15 -17 24 -38z m-6518 -123 c63 -55 57 -129
-13 -176 -115 -77 -244 75 -143 169 52 49 106 51 156 7z m6826 16 c37 -19 60
-62 60 -111 0 -28 -8 -44 -34 -70 -29 -29 -41 -34 -81 -34 -40 0 -52 5 -81 34
-26 26 -34 42 -34 70 0 50 23 90 62 109 41 21 71 21 108 2z m-6145 -270 c28
-8 59 -20 69 -28 19 -14 18 -16 -23 -45 -91 -66 -234 -87 -336 -48 -93 35 -92
47 9 98 92 47 174 53 281 23z m5575 -4 c27 -10 68 -33 91 -49 l41 -31 -29 -14
c-137 -69 -286 -58 -401 30 -31 23 -32 27 -17 36 88 49 227 61 315 28z m-6120
-65 c33 -12 55 -27 55 -36 0 -9 -33 -32 -78 -55 -73 -37 -85 -40 -160 -40 -57
0 -98 6 -135 20 -71 26 -80 38 -45 63 116 81 238 97 363 48z m6685 6 c39 -15
125 -68 125 -77 0 -11 -81 -44 -134 -55 -70 -14 -142 -7 -206 21 -53 24 -110
61 -110 72 0 11 66 38 130 53 62 15 136 9 195 -14z m-5968 -64 c71 -74 96
-130 101 -228 2 -47 -1 -104 -7 -128 l-12 -43 -30 22 c-42 30 -95 105 -114
161 -9 26 -17 76 -17 110 0 65 17 148 30 148 4 0 26 -19 49 -42z m5062 -8 c16
-75 13 -130 -9 -204 -17 -53 -32 -79 -80 -129 l-58 -62 -12 30 c-36 93 -18
232 41 317 30 43 87 98 100 98 4 0 12 -23 18 -50z m-5581 -115 c24 -45 27 -60
27 -150 0 -82 -4 -109 -22 -147 -12 -27 -26 -48 -32 -48 -15 0 -69 83 -87 132
-23 63 -23 182 0 243 29 77 36 82 64 49 13 -16 35 -51 50 -79z m6153 -5 c24
-115 -5 -238 -75 -324 l-24 -29 -20 39 c-28 56 -45 149 -38 206 8 61 44 142
81 186 l28 33 18 -28 c10 -15 24 -53 30 -83z m-5838 -40 c21 -23 27 -40 27
-74 0 -55 -25 -88 -79 -105 -75 -22 -141 26 -141 102 0 49 13 73 53 98 46 29
103 20 140 -21z m5535 26 c62 -34 79 -114 37 -165 -54 -63 -147 -62 -186 3
-61 100 48 219 149 162z m-4809 -147 c28 -6 53 -14 56 -19 9 -15 -68 -80 -135
-113 -59 -29 -72 -32 -155 -31 -49 0 -103 6 -120 13 l-30 13 49 44 c58 53 87
69 158 88 65 18 112 19 177 5z m4180 -25 c63 -28 141 -89 141 -109 0 -20 -102
-38 -176 -32 -35 2 -85 15 -117 30 -52 24 -137 90 -137 108 0 8 49 24 100 33
49 8 136 -5 189 -30z m-3975 -99 c23 -22 54 -61 68 -86 32 -55 52 -166 41
-222 l-8 -39 -61 45 c-111 82 -151 173 -145 335 l1 43 31 -18 c18 -10 50 -36
73 -58z m3644 -22 c-5 -106 -30 -169 -91 -231 -51 -53 -103 -86 -118 -76 -8 4
-10 34 -7 88 6 116 54 203 146 271 71 52 75 50 70 -52z m-4382 -14 c24 -6 44
-17 44 -24 0 -20 -103 -94 -162 -117 -61 -23 -169 -27 -237 -9 l-44 12 34 36
c38 39 102 79 157 99 46 16 149 18 208 3z m5265 -22 c54 -26 139 -91 139 -106
0 -15 -95 -35 -160 -34 -40 0 -86 9 -120 22 -58 22 -167 108 -153 122 19 18
83 28 159 26 64 -3 93 -9 135 -30z m-5078 -100 c48 -59 65 -96 76 -163 10 -64
-2 -181 -20 -199 -15 -14 -99 79 -129 141 -28 60 -38 171 -20 243 12 50 12 50
35 35 13 -9 39 -34 58 -57z m4738 -12 c11 -79 0 -156 -32 -222 -21 -43 -100
-133 -118 -133 -16 0 -34 100 -29 169 4 46 14 85 32 122 30 60 115 154 129
140 4 -4 12 -39 18 -76z m-4410 12 c44 -30 63 -69 54 -114 -23 -126 -225 -112
-225 15 0 47 26 91 63 107 45 20 69 18 108 -8z m4132 -27 c25 -29 29 -39 24
-77 -6 -52 -26 -78 -74 -94 -74 -24 -140 15 -150 90 -15 111 123 167 200 81z
m-3354 14 c17 -4 31 -10 31 -14 0 -24 -108 -123 -164 -150 -68 -34 -189 -50
-235 -33 l-23 9 44 55 c86 106 222 158 347 133z m2648 -33 c58 -31 163 -127
163 -149 0 -29 -165 -21 -243 11 -39 17 -116 84 -149 130 -29 40 -12 49 87 44
67 -3 90 -8 142 -36z m-2468 -24 c99 -59 160 -153 169 -263 6 -74 4 -75 -69
-39 -98 50 -167 144 -188 260 -6 32 -11 65 -11 73 0 18 31 8 99 -31z m2159
-20 c-7 -82 -38 -151 -94 -208 -45 -46 -158 -109 -171 -96 -12 12 18 141 44
188 33 61 96 122 158 154 28 14 54 25 59 25 5 0 6 -28 4 -63z m-1538 -77 c0
-20 -38 -85 -75 -127 -45 -52 -137 -99 -228 -114 -37 -6 -70 -9 -73 -6 -10 10
45 104 83 143 52 54 64 63 130 90 60 24 163 33 163 14z m192 -42 c92 -49 162
-142 183 -245 l6 -31 -43 9 c-147 33 -263 147 -284 277 l-6 40 43 -9 c24 -6
69 -24 101 -41z m588 48 c0 -2 -9 -33 -20 -68 -24 -79 -73 -145 -137 -186 -52
-32 -159 -70 -169 -59 -11 11 15 88 48 142 40 67 113 125 190 152 61 22 88 27
88 19z m227 -30 c83 -38 193 -156 193 -208 0 -18 -5 -19 -57 -12 -146 18 -258
97 -308 219 l-16 38 64 -5 c38 -3 88 -16 124 -32z m-2319 -62 c30 -6 31 -7 17
-33 -23 -45 -98 -109 -159 -137 -61 -28 -170 -43 -220 -30 -23 6 -25 9 -15 28
19 35 91 109 123 125 90 47 176 62 254 47z m3650 -26 c61 -23 188 -135 180
-160 -7 -20 -138 -22 -201 -3 -64 18 -137 71 -177 127 -17 22 -30 45 -30 49 0
25 147 17 228 -13z m-3145 1 c50 -26 67 -51 67 -99 0 -58 -26 -95 -75 -109
-79 -22 -145 27 -145 106 0 82 84 138 153 102z m2560 -27 c40 -41 44 -108 8
-146 -73 -77 -201 -35 -201 66 0 40 32 95 63 108 39 17 97 4 130 -28z m-2918
-12 c64 -44 122 -115 141 -173 17 -52 25 -189 11 -203 -10 -10 -83 43 -128 94
-60 69 -87 160 -81 280 1 17 5 32 8 32 3 0 25 -13 49 -30z m3212 -60 c-7 -103
-27 -158 -83 -220 -43 -47 -118 -102 -128 -93 -3 4 -6 38 -6 77 1 116 49 213
142 287 76 60 82 56 75 -51z m-2007 -57 c98 -67 55 -203 -63 -203 -54 0 -107
52 -107 105 0 47 14 71 53 95 39 24 85 25 117 3z m834 3 c42 -18 66 -51 66
-93 0 -71 -43 -113 -117 -113 -99 0 -147 115 -75 182 44 41 73 46 126 24z
m-1339 -68 c-13 -46 -76 -129 -123 -163 -56 -41 -117 -64 -194 -72 -71 -7 -73
0 -20 83 40 61 84 104 133 130 41 20 127 43 172 43 35 1 38 -1 32 -21z m1853
7 c98 -13 212 -98 261 -194 12 -22 21 -43 21 -47 0 -14 -137 4 -182 24 -60 26
-133 94 -169 157 -36 63 -37 76 -1 70 15 -2 46 -7 70 -10z m-1703 -34 c111
-64 175 -159 183 -273 l5 -68 -32 11 c-50 18 -123 72 -158 117 -41 53 -73 141
-73 197 0 54 7 55 75 16z m1532 -24 c-11 -87 -36 -144 -90 -203 -41 -45 -145
-114 -172 -114 -10 0 -4 76 9 122 34 110 89 173 206 235 46 24 53 18 47 -40z
m-847 -58 c-37 -137 -130 -227 -274 -265 l-48 -13 6 31 c20 102 103 211 192
253 48 23 124 45 132 39 2 -1 -2 -22 -8 -45z m168 23 c114 -44 198 -134 227
-243 8 -29 13 -54 12 -55 -6 -6 -92 18 -133 37 -88 42 -172 149 -189 242 -6
33 -5 37 14 37 11 0 43 -8 69 -18z"/>
<path d="M5070 10479 c1 -24 36 -93 65 -127 39 -46 137 -93 150 -72 16 25 -64
142 -118 174 -55 32 -97 43 -97 25z"/>
<path d="M5610 10474 c-48 -21 -97 -70 -126 -126 -31 -61 -31 -82 -1 -73 54
16 106 46 132 77 29 34 64 103 65 126 0 16 -27 15 -70 -4z"/>
<path d="M4734 10444 c-23 -15 -55 -48 -72 -74 -31 -47 -60 -135 -49 -147 11
-10 65 18 100 52 39 38 72 102 81 158 8 46 -3 48 -60 11z"/>
<path d="M5950 10450 c0 -31 36 -118 65 -156 23 -31 90 -74 113 -74 11 0 1 60
-17 104 -20 49 -52 87 -99 117 -54 34 -62 35 -62 9z"/>
<path d="M6443 10349 c-46 -22 -102 -80 -128 -128 l-16 -31 36 0 c20 0 55 9
78 19 59 27 137 113 137 150 0 18 -62 12 -107 -10z"/>
<path d="M4190 10362 c0 -18 63 -103 90 -122 57 -41 160 -65 160 -37 0 29 -77
112 -129 139 -50 26 -121 38 -121 20z"/>
<path d="M3854 10253 c-47 -47 -75 -110 -82 -186 -6 -66 -6 -66 56 -20 53 40
101 162 85 221 -7 30 -17 28 -59 -15z"/>
<path d="M6836 10283 c-13 -13 -5 -84 14 -137 14 -37 36 -68 68 -98 l47 -43 3
55 c3 58 -15 121 -49 164 -25 32 -74 67 -83 59z"/>
<path d="M4900 10248 c-42 -45 -12 -118 49 -118 32 0 71 39 71 70 0 10 -9 29
-21 44 -26 33 -70 35 -99 4z"/>
<path d="M5740 10250 c-43 -43 -11 -120 48 -120 37 0 65 31 65 72 0 59 -72 89
-113 48z"/>
<path d="M4082 10123 c-23 -9 -43 -60 -33 -85 14 -36 36 -50 78 -46 30 2 41 9
51 31 30 62 -32 126 -96 100z"/>
<path d="M6585 10105 c-14 -13 -25 -36 -25 -50 0 -30 41 -75 68 -75 33 0 72
38 72 71 0 35 -39 79 -70 79 -11 0 -32 -11 -45 -25z"/>
<path d="M5220 10084 c-48 -21 -97 -70 -126 -126 -35 -68 -33 -77 17 -68 69
13 155 103 175 183 7 32 -10 35 -66 11z"/>
<path d="M5460 10087 c0 -30 55 -119 93 -152 38 -32 112 -63 124 -51 9 9 -17
73 -48 114 -44 61 -169 126 -169 89z"/>
<path d="M3368 10092 c-16 -2 -28 -9 -28 -16 0 -20 69 -84 115 -106 43 -21
155 -29 155 -11 0 18 -53 72 -94 96 -46 27 -107 42 -148 37z"/>
<path d="M7248 10069 c-43 -22 -120 -98 -112 -111 12 -19 110 -8 162 18 53 27
117 88 107 105 -11 17 -118 9 -157 -12z"/>
<path d="M4650 10040 c0 -21 29 -66 67 -102 45 -44 98 -68 148 -68 l36 0 -23
41 c-13 23 -40 57 -62 75 -54 46 -166 82 -166 54z"/>
<path d="M6002 10035 c-54 -24 -88 -52 -121 -102 -38 -57 -38 -63 -4 -63 38 0
93 20 132 48 30 23 91 105 91 124 0 13 -62 8 -98 -7z"/>
<path d="M4414 9994 c-21 -15 -44 -34 -52 -43 -25 -32 -60 -108 -67 -145 -7
-37 -7 -38 16 -31 72 22 129 85 155 171 25 83 15 93 -52 48z"/>
<path d="M6274 9980 c15 -95 80 -182 154 -204 19 -6 22 -4 22 17 0 34 -25 102
-51 139 -21 29 -103 88 -122 88 -6 0 -7 -17 -3 -40z"/>
<path d="M3045 9928 c-49 -57 -68 -113 -63 -184 2 -35 7 -66 11 -70 11 -12 55
35 79 85 16 32 22 65 22 113 1 86 -12 100 -49 56z"/>
<path d="M7654 9935 c-19 -74 17 -204 69 -253 l25 -24 8 24 c4 12 7 48 7 79 0
66 -37 152 -78 182 -24 17 -25 17 -31 -8z"/>
<path d="M3858 9853 c-23 -6 -23 -10 7 -49 40 -52 106 -86 179 -91 38 -3 66
-1 70 5 8 14 -65 87 -111 111 -40 20 -116 33 -145 24z"/>
<path d="M6794 9850 c-59 -13 -164 -98 -164 -130 0 -6 22 -10 50 -10 68 0 146
36 195 91 l39 44 -29 6 c-39 9 -54 8 -91 -1z"/>
<path d="M3276 9809 c-30 -36 -31 -40 -11 -79 33 -63 117 -41 123 32 2 29 -2
40 -24 57 -37 29 -58 26 -88 -10z"/>
<path d="M7383 9820 c-31 -28 -36 -55 -18 -89 20 -40 58 -50 93 -24 38 28 41
75 8 108 -30 30 -55 32 -83 5z"/>
<path d="M3638 9770 c-50 -38 -90 -114 -95 -184 -3 -35 -1 -66 4 -69 17 -11
85 56 109 107 23 49 35 166 17 166 -5 0 -20 -10 -35 -20z"/>
<path d="M7065 9779 c-11 -16 4 -98 27 -152 24 -55 97 -125 110 -105 27 43
-13 167 -74 227 -42 43 -53 48 -63 30z"/>
<path d="M2608 9680 c-26 -3 -50 -9 -54 -13 -11 -10 25 -45 76 -76 37 -22 57
-26 117 -26 117 0 120 37 9 89 -63 30 -89 34 -148 26z"/>
<path d="M8015 9668 c-42 -15 -115 -69 -115 -84 0 -17 79 -28 131 -20 43 7 98
33 139 65 20 16 23 22 12 32 -16 17 -129 22 -167 7z"/>
<path d="M2294 9465 c-23 -36 -43 -95 -44 -131 0 -35 26 -131 39 -138 4 -3 21
18 36 46 32 59 40 160 16 216 -16 39 -25 40 -47 7z"/>
<path d="M8407 9461 c-26 -64 -22 -146 11 -210 15 -30 32 -54 37 -53 15 1 33
71 34 132 1 54 -19 111 -51 154 -14 18 -16 16 -31 -23z"/>
<path d="M3160 9533 c-56 -9 -70 -14 -70 -27 0 -18 83 -73 131 -87 42 -13 145
-4 155 13 14 22 -97 91 -161 101 -16 2 -41 3 -55 0z"/>
<path d="M7503 9530 c-48 -11 -133 -70 -133 -91 0 -14 83 -31 120 -25 43 7
105 36 145 70 l30 25 -37 15 c-40 17 -73 19 -125 6z"/>
<path d="M2900 9394 c-46 -53 -63 -99 -63 -172 -1 -86 14 -99 59 -48 40 47 54
90 54 171 0 85 -10 94 -50 49z"/>
<path d="M7794 9385 c-12 -83 14 -170 71 -231 l25 -26 10 26 c15 39 12 106 -5
157 -15 45 -68 119 -85 119 -5 0 -12 -20 -16 -45z"/>
<path d="M2541 9384 c-27 -35 -26 -59 4 -89 30 -31 65 -32 93 -2 28 29 28 67
2 95 -29 31 -73 29 -99 -4z"/>
<path d="M8108 9390 c-24 -25 -29 -36 -23 -58 15 -61 61 -79 109 -41 41 32 34
89 -15 114 -37 20 -36 20 -71 -15z"/>
<path d="M1887 9134 c-21 -9 -36 -22 -34 -28 2 -6 23 -22 48 -36 35 -20 58
-25 114 -25 68 0 125 18 132 40 2 6 -18 21 -44 34 -63 31 -163 38 -216 15z"/>
<path d="M8674 9138 c-17 -6 -44 -20 -60 -33 l-28 -22 34 -18 c67 -35 202 -23
253 22 25 23 22 29 -23 47 -44 18 -128 20 -176 4z"/>
<path d="M2453 9081 c-24 -11 -43 -24 -43 -30 0 -18 95 -55 151 -59 60 -4 120
10 139 33 9 11 2 19 -41 41 -71 36 -150 41 -206 15z"/>
<path d="M8128 9086 c-46 -17 -88 -43 -88 -55 0 -16 80 -41 133 -41 51 0 146
35 161 59 21 33 -140 62 -206 37z"/>
<path d="M2248 8915 c-52 -81 -59 -155 -23 -242 l16 -38 19 25 c50 65 62 176
28 260 l-14 35 -26 -40z"/>
<path d="M8459 8925 c-7 -16 -14 -60 -17 -98 -4 -71 5 -108 42 -161 l20 -30
18 40 c34 76 19 189 -35 259 -15 20 -16 19 -28 -10z"/>
<path d="M1628 8863 c-17 -38 -19 -59 -15 -109 6 -58 34 -135 56 -148 21 -13
51 113 41 175 -6 42 -44 129 -56 129 -3 0 -14 -21 -26 -47z"/>
<path d="M9059 8863 c-31 -63 -36 -141 -14 -198 9 -25 21 -47 26 -51 18 -11
59 98 59 158 0 56 -24 138 -40 138 -5 0 -18 -21 -31 -47z"/>
<path d="M1905 8855 c-64 -63 15 -166 83 -107 11 9 23 30 26 45 5 22 1 34 -23
57 -36 36 -54 37 -86 5z"/>
<path d="M8755 8855 c-46 -45 -19 -119 43 -117 40 1 51 8 63 40 13 34 -4 76
-37 91 -35 16 -42 14 -69 -14z"/>
<path d="M1910 8547 c-50 -17 -101 -50 -97 -62 7 -20 82 -37 153 -33 55 2 79
9 107 28 20 14 37 29 37 33 0 28 -145 53 -200 34z"/>
<path d="M8715 8554 c-49 -12 -76 -28 -73 -42 5 -28 88 -61 148 -61 69 1 135
20 135 39 0 35 -148 79 -210 64z"/>
<path d="M9237 8505 c-49 -17 -53 -21 -36 -41 42 -52 171 -69 253 -34 l39 16
-23 22 c-50 47 -158 64 -233 37z"/>
<path d="M1345 8509 c-39 -11 -90 -53 -82 -66 12 -19 97 -36 157 -30 63 5 130
38 130 62 0 17 -90 45 -139 44 -20 0 -49 -5 -66 -10z"/>
<path d="M1675 8319 c-27 -58 -25 -148 3 -211 24 -55 36 -59 56 -20 36 69 25
194 -22 252 l-18 22 -19 -43z"/>
<path d="M9016 8306 c-31 -66 -35 -134 -11 -206 l18 -54 23 27 c47 55 59 178
24 247 -11 22 -22 40 -24 40 -3 0 -16 -24 -30 -54z"/>
<path d="M1081 8185 c-15 -54 -14 -84 5 -143 19 -57 72 -128 86 -114 4 4 11
31 15 59 7 66 -17 145 -62 198 l-33 40 -11 -40z"/>
<path d="M9617 8180 c-41 -49 -60 -111 -55 -184 4 -73 10 -85 33 -66 53 44 86
161 71 244 -8 44 -17 45 -49 6z"/>
<path d="M1351 8214 c-12 -15 -21 -38 -21 -51 0 -29 42 -73 70 -73 29 0 70 44
70 75 0 33 -41 75 -74 75 -15 0 -33 -11 -45 -26z"/>
<path d="M9306 8219 c-33 -26 -36 -79 -6 -109 22 -22 37 -24 75 -10 53 20 53
104 -1 129 -33 15 -37 14 -68 -10z"/>
<path d="M1457 7926 c-50 -14 -120 -63 -125 -88 -7 -37 153 -29 218 10 38 24
66 60 54 72 -17 16 -99 19 -147 6z"/>
<path d="M9158 7933 c-37 -6 -35 -25 5 -59 48 -41 95 -57 167 -57 88 -1 99 7
63 45 -50 54 -154 85 -235 71z"/>
<path d="M885 7771 c-44 -21 -103 -77 -91 -88 4 -4 37 -9 74 -11 78 -5 139 18
188 69 24 25 26 31 14 39 -26 17 -142 11 -185 -9z"/>
<path d="M9673 7782 c-19 -12 9 -46 65 -79 37 -22 61 -28 117 -30 115 -4 125
23 30 82 -41 25 -60 30 -124 33 -42 1 -82 -1 -88 -6z"/>
<path d="M1226 7658 c-13 -52 -6 -133 18 -183 23 -49 61 -93 71 -83 3 3 10 29
14 59 11 65 -6 128 -49 187 -34 48 -45 52 -54 20z"/>
<path d="M9466 7639 c-53 -79 -66 -146 -45 -222 10 -36 12 -38 28 -23 55 50
93 174 74 245 -12 48 -26 48 -57 0z"/>
<path d="M949 7490 c-9 -5 -22 -23 -28 -39 -10 -24 -10 -34 3 -60 43 -82 160
-24 125 62 -17 40 -65 58 -100 37z"/>
<path d="M9711 7474 c-40 -50 -22 -109 36 -120 26 -5 37 -1 57 19 33 33 33 71
1 102 -32 33 -68 32 -94 -1z"/>
<path d="M666 7389 c-7 -36 7 -96 34 -149 22 -43 87 -107 97 -96 13 13 6 109
-10 148 -15 36 -92 128 -107 128 -4 0 -10 -14 -14 -31z"/>
<path d="M10020 7381 c-52 -54 -80 -119 -80 -186 0 -35 4 -55 12 -55 26 0 97
90 113 141 18 62 20 139 3 139 -6 0 -28 -17 -48 -39z"/>
<path d="M4405 7330 c-3 -5 -2 -10 4 -10 5 0 13 5 16 10 3 6 2 10 -4 10 -5 0
-13 -4 -16 -10z"/>
<path d="M4410 6405 c0 -2 6 -8 13 -14 10 -8 14 -7 14 2 0 8 -6 14 -14 14 -7
0 -13 -1 -13 -2z"/>
<path d="M6630 7376 c0 -2 7 -7 16 -10 8 -3 12 -2 9 4 -6 10 -25 14 -25 6z"/>
<path d="M1108 7206 c-53 -19 -82 -40 -113 -80 -31 -41 -26 -56 19 -56 67 0
139 30 184 76 56 59 55 74 -5 74 -27 -1 -65 -7 -85 -14z"/>
<path d="M9508 7215 c-9 -10 21 -57 55 -85 54 -44 171 -73 205 -52 18 12 -49
87 -101 113 -41 21 -146 37 -159 24z"/>
<path d="M625 6981 c-51 -13 -91 -39 -129 -83 -20 -23 -36 -45 -36 -50 0 -14
94 -9 143 8 53 18 127 84 127 114 0 17 -6 20 -37 19 -21 -1 -51 -4 -68 -8z"/>
<path d="M10010 6975 c0 -8 19 -35 43 -59 30 -32 57 -48 96 -60 71 -21 131
-21 131 -1 0 28 -84 101 -135 118 -63 22 -135 23 -135 2z"/>
<path d="M900 6875 c0 -78 21 -134 70 -186 26 -27 51 -49 58 -49 21 0 15 105
-10 157 -23 49 -87 123 -106 123 -7 0 -12 -18 -12 -45z"/>
<path d="M9785 6879 c-50 -55 -77 -120 -77 -181 1 -28 3 -53 7 -56 11 -11 61
36 91 86 42 69 57 192 24 192 -4 0 -24 -19 -45 -41z"/>
<path d="M655 6685 c-48 -47 -20 -125 45 -125 32 0 70 33 70 61 0 31 -21 66
-47 78 -34 16 -41 14 -68 -14z"/>
<path d="M10005 6685 c-50 -50 -23 -125 46 -125 74 0 88 115 16 140 -38 13
-34 14 -62 -15z"/>
<path d="M395 6538 c13 -82 48 -139 116 -191 44 -33 59 -34 59 -4 0 75 -69
181 -142 218 l-40 20 7 -43z"/>
<path d="M10291 6546 c-62 -46 -111 -133 -111 -197 0 -36 7 -36 57 0 70 50
113 125 113 192 0 36 -16 37 -59 5z"/>
<path d="M890 6449 c-25 -11 -60 -35 -78 -52 -38 -36 -76 -103 -63 -111 12 -8
110 22 148 45 32 20 93 102 93 126 0 19 -48 16 -100 -8z"/>
<path d="M9775 6421 c26 -53 68 -91 128 -116 35 -14 97 -21 97 -10 0 15 -41
83 -62 102 -31 30 -127 73 -161 73 l-27 0 25 -49z"/>
<path d="M479 6153 c-55 -8 -132 -66 -167 -123 -38 -65 -32 -70 53 -45 60 17
126 68 151 116 17 34 18 59 2 58 -7 -1 -25 -4 -39 -6z"/>
<path d="M10210 6153 c0 -24 63 -113 97 -136 36 -25 137 -56 148 -45 10 10
-24 74 -57 105 -46 45 -188 102 -188 76z"/>
<path d="M9973 6091 c-64 -46 -113 -132 -113 -197 0 -32 18 -30 67 5 64 46 89
88 102 174 10 57 1 59 -56 18z"/>
<path d="M712 6077 c9 -80 68 -166 138 -202 l30 -16 0 34 c0 45 -17 95 -47
135 -26 34 -98 92 -116 92 -5 0 -8 -18 -5 -43z"/>
<path d="M502 5860 c-30 -28 -29 -74 3 -105 28 -29 36 -30 75 -10 36 18 46 47
29 87 -20 48 -71 61 -107 28z"/>
<path d="M10151 5855 c-28 -37 -27 -70 5 -101 40 -41 97 -20 110 42 7 38 -19
72 -62 80 -26 5 -35 1 -53 -21z"/>
<path d="M6545 5760 c3 -5 8 -10 11 -10 2 0 4 5 4 10 0 6 -5 10 -11 10 -5 0
-7 -4 -4 -10z"/>
<path d="M6523 5583 c4 -3 1 -13 -6 -22 -11 -14 -10 -14 5 -2 16 12 16 31 1
31 -4 0 -3 -3 0 -7z"/>
<path d="M260 5675 c0 -25 27 -82 55 -120 15 -19 54 -48 88 -65 54 -27 62 -29
65 -14 11 52 -61 150 -143 193 -47 25 -65 26 -65 6z"/>
<path d="M805 5676 c-69 -30 -145 -128 -145 -186 0 -17 4 -19 28 -14 70 17
162 112 175 182 7 37 -6 41 -58 18z"/>
<path d="M9880 5672 c0 -32 50 -120 83 -145 42 -31 92 -57 112 -57 13 0 15 6
10 32 -15 67 -82 145 -147 172 -48 20 -58 20 -58 -2z"/>
<path d="M10415 5669 c-53 -28 -82 -56 -110 -104 -32 -56 -40 -95 -20 -95 47
0 146 74 174 129 42 82 27 108 -44 70z"/>
<path d="M425 5289 c-85 -47 -145 -117 -160 -186 l-6 -32 44 15 c84 29 166
123 167 192 0 24 -14 27 -45 11z"/>
<path d="M662 5263 c22 -80 101 -161 176 -180 34 -8 37 1 17 53 -24 62 -65
107 -127 138 -71 36 -79 34 -66 -11z"/>
<path d="M10053 5296 c-59 -21 -121 -73 -148 -125 -33 -65 -34 -95 -2 -85 83
25 159 96 177 164 15 54 11 59 -27 46z"/>
<path d="M10270 5291 c0 -20 31 -93 51 -120 28 -38 90 -80 129 -88 25 -4 30
-2 30 13 -1 33 -36 98 -71 130 -54 51 -139 90 -139 65z"/>
<path d="M505 5015 c-32 -31 -32 -69 1 -101 19 -20 31 -24 52 -19 64 16 82 75
37 120 -31 32 -59 32 -90 0z"/>
<path d="M10162 5024 c-31 -21 -44 -58 -32 -88 27 -73 130 -49 130 30 0 28 -6
38 -32 54 -40 24 -38 24 -66 4z"/>
<path d="M831 4882 c-68 -46 -121 -134 -121 -203 0 -36 7 -36 58 -1 67 45 100
99 116 189 7 44 -4 47 -53 15z"/>
<path d="M9860 4886 c0 -67 58 -169 121 -210 64 -43 72 -32 44 60 -18 60 -73
127 -126 155 l-39 19 0 -24z"/>
<path d="M290 4787 c0 -29 61 -106 102 -131 47 -27 129 -49 141 -37 11 11 -46
95 -85 124 -59 45 -158 72 -158 44z"/>
<path d="M10369 4786 c-61 -22 -108 -65 -143 -133 -16 -33 -16 -33 7 -33 45 0
122 33 161 69 32 30 66 84 66 106 0 9 -55 4 -91 -9z"/>
<path d="M740 4486 c0 -12 26 -63 47 -92 36 -49 163 -108 192 -89 30 18 -58
124 -128 153 -50 21 -111 37 -111 28z"/>
<path d="M9929 4476 c-63 -22 -111 -58 -140 -105 -40 -62 -38 -75 9 -66 79 14
158 70 192 136 27 52 11 61 -61 35z"/>
<path d="M498 4417 c-58 -44 -100 -114 -106 -177 -2 -28 -2 -50 2 -50 12 0 81
48 103 71 12 13 31 44 42 69 21 46 28 120 12 120 -5 0 -29 -15 -53 -33z"/>
<path d="M10180 4418 c0 -70 74 -178 150 -218 22 -12 23 -11 18 44 -3 41 -13
68 -34 99 -29 40 -106 107 -125 107 -5 0 -9 -15 -9 -32z"/>
<path d="M651 4174 c-12 -15 -21 -34 -21 -44 0 -31 39 -70 71 -70 62 0 92 75
46 118 -32 30 -71 28 -96 -4z"/>
<path d="M9990 4168 c-22 -37 -19 -64 12 -90 44 -38 108 -7 108 52 0 39 -32
70 -70 70 -23 0 -35 -7 -50 -32z"/>
<path d="M1003 4106 c-57 -51 -93 -126 -93 -193 0 -29 4 -53 10 -53 20 0 89
72 108 113 25 55 32 94 23 136 l-7 35 -41 -38z"/>
<path d="M9694 4125 c-11 -26 3 -111 25 -152 23 -45 97 -120 108 -109 4 4 7
31 7 59 -1 72 -44 151 -105 196 -26 19 -30 20 -35 6z"/>
<path d="M483 3942 c-19 -12 29 -77 79 -108 47 -30 162 -54 178 -38 17 17 -62
98 -117 122 -57 24 -123 35 -140 24z"/>
<path d="M10180 3941 c-57 -11 -122 -53 -154 -98 -16 -24 -27 -46 -23 -50 13
-12 138 17 176 41 37 24 91 80 91 96 0 7 -38 21 -50 19 -3 -1 -21 -4 -40 -8z"/>
<path d="M7583 3247 c-32 -18 -73 -77 -73 -104 0 -13 4 -23 9 -23 22 0 141
107 141 127 0 16 -48 16 -77 0z"/>
<path d="M979 3699 c-14 -9 16 -55 62 -93 52 -44 186 -72 196 -41 6 18 -57 85
-100 106 -44 23 -139 40 -158 28z"/>
<path d="M9625 3680 c-49 -23 -75 -45 -104 -88 -20 -28 -20 -33 -7 -38 24 -9
106 5 146 26 41 21 110 88 110 107 0 20 -97 16 -145 -7z"/>
<path d="M752 3600 c-23 -21 -50 -57 -61 -78 -23 -46 -36 -131 -22 -151 14
-22 70 25 105 89 30 54 47 162 28 174 -5 3 -28 -12 -50 -34z"/>
<path d="M9939 3608 c-3 -86 16 -141 70 -198 26 -28 52 -50 59 -50 17 0 15
100 -3 144 -17 39 -77 111 -107 127 -16 8 -18 5 -19 -23z"/>
<path d="M1277 3359 c-47 -69 -66 -149 -48 -208 6 -23 16 -41 22 -41 14 0 67
88 79 130 13 47 12 109 -3 144 l-13 29 -37 -54z"/>
<path d="M9410 3356 c-10 -36 -10 -55 0 -96 12 -51 65 -141 86 -147 27 -9 33
126 9 184 -18 42 -62 103 -74 103 -5 0 -14 -20 -21 -44z"/>
<path d="M963 3409 c-12 -4 -29 -21 -37 -36 -12 -24 -12 -33 -1 -60 25 -60
107 -53 128 11 16 49 -41 104 -90 85z"/>
<path d="M9734 3407 c-28 -16 -43 -39 -44 -68 0 -31 38 -69 69 -69 29 0 71 43
71 72 -1 47 -58 86 -96 65z"/>
<path d="M823 3113 c-33 -6 -28 -27 15 -62 45 -38 88 -51 167 -51 86 0 94 9
46 53 -58 52 -147 76 -228 60z"/>
<path d="M9795 3111 c-69 -18 -149 -81 -129 -101 11 -11 114 -15 151 -7 57 14
142 82 124 100 -12 12 -111 18 -146 8z"/>
<path d="M1353 2973 c-29 -5 -29 -12 0 -43 31 -36 65 -55 117 -68 48 -11 137
-5 146 10 11 17 -48 67 -103 88 -50 19 -107 23 -160 13z"/>
<path d="M9239 2965 c-52 -17 -125 -83 -109 -99 5 -5 42 -9 82 -9 54 0 83 5
113 20 53 28 92 70 78 84 -17 17 -114 20 -164 4z"/>
<path d="M1145 2839 c-59 -70 -82 -173 -55 -245 10 -25 12 -26 29 -10 10 9 31
40 46 68 23 42 29 64 28 113 -1 33 -5 71 -10 84 l-9 23 -29 -33z"/>
<path d="M9561 2839 c-16 -46 -14 -102 6 -151 17 -45 63 -117 75 -118 15 0 30
75 25 122 -6 50 -46 135 -77 163 -16 15 -19 14 -29 -16z"/>
<path d="M8999 2686 c-16 -37 -20 -62 -17 -105 4 -55 43 -161 58 -161 10 0 35
65 44 113 8 44 -13 126 -43 172 l-20 29 -22 -48z"/>
<path d="M1706 2705 c-55 -83 -60 -205 -12 -270 14 -19 16 -17 42 39 34 74 37
162 7 219 l-19 39 -18 -27z"/>
<path d="M1361 2654 c-12 -15 -21 -35 -21 -46 0 -25 44 -68 70 -68 29 0 70 44
70 75 0 61 -81 87 -119 39z"/>
<path d="M9288 2663 c-25 -29 -29 -53 -13 -82 23 -46 71 -55 105 -21 24 24 26
67 4 98 -19 27 -74 30 -96 5z"/>
<path d="M9265 2365 c-46 -18 -80 -48 -71 -64 10 -15 74 -31 129 -31 52 0 157
44 157 65 0 35 -147 55 -215 30z"/>
<path d="M1310 2368 c-48 -18 -46 -45 5 -72 69 -36 240 -27 240 13 0 8 -21 26
-47 39 -55 28 -148 38 -198 20z"/>
<path d="M1856 2317 c-22 -7 -41 -17 -43 -23 -4 -13 43 -47 86 -62 69 -24 206
-5 206 27 0 8 -24 28 -54 43 -59 31 -125 36 -195 15z"/>
<path d="M8693 2305 c-67 -34 -72 -49 -22 -69 78 -31 207 -12 247 37 19 22 9
33 -42 46 -72 18 -127 14 -183 -14z"/>
<path d="M9056 2144 c-26 -56 -30 -114 -12 -176 9 -31 24 -66 35 -79 l18 -23
17 33 c38 72 28 177 -22 253 l-18 28 -18 -36z"/>
<path d="M1639 2123 c-31 -63 -37 -150 -14 -208 9 -25 21 -45 26 -45 5 0 18
19 30 43 31 59 37 165 14 217 -10 22 -21 40 -26 40 -4 0 -18 -21 -30 -47z"/>
<path d="M2218 2103 c-6 -16 -12 -59 -12 -98 -1 -56 4 -80 24 -120 14 -27 30
-51 36 -52 16 -5 37 77 36 140 0 51 -18 104 -45 140 -19 23 -26 22 -39 -10z"/>
<path d="M8478 2099 c-15 -24 -31 -58 -34 -76 -8 -43 0 -129 15 -167 10 -25
13 -26 28 -15 51 43 71 181 36 259 l-18 41 -27 -42z"/>
<path d="M1902 2018 c-46 -50 -9 -130 56 -120 83 12 80 122 -3 138 -23 4 -35
0 -53 -18z"/>
<path d="M8755 2015 c-34 -33 -33 -77 1 -104 44 -35 96 -15 109 41 6 22 1 33
-23 58 -37 36 -55 38 -87 5z"/>
<path d="M2488 1775 c-43 -16 -88 -44 -88 -55 0 -16 83 -40 138 -40 64 0 162
39 162 63 0 39 -138 59 -212 32z"/>
<path d="M8090 1774 c-56 -20 -56 -20 -39 -40 41 -50 190 -72 257 -39 17 9 32
21 32 26 0 5 -23 20 -51 35 -65 33 -139 39 -199 18z"/>
<path d="M1912 1704 c-58 -29 -65 -45 -24 -63 69 -32 177 -21 247 25 30 19 25
29 -22 49 -57 24 -141 19 -201 -11z"/>
<path d="M8622 1714 c-18 -8 -32 -20 -29 -27 2 -6 26 -23 53 -37 62 -32 174
-36 217 -7 34 22 28 33 -37 63 -59 28 -151 31 -204 8z"/>
<path d="M2834 1585 c-8 -56 1 -106 31 -164 25 -49 61 -88 72 -78 13 14 15
119 3 162 -12 42 -72 125 -90 125 -5 0 -12 -20 -16 -45z"/>
<path d="M7856 1597 c-41 -54 -59 -107 -59 -173 1 -82 8 -92 44 -58 49 47 70
106 67 186 -2 43 -8 73 -15 75 -6 2 -23 -11 -37 -30z"/>
<path d="M2281 1561 c-37 -68 -29 -185 17 -254 l26 -39 14 28 c37 70 24 197
-27 263 l-19 24 -11 -22z"/>
<path d="M8433 1553 c-55 -79 -63 -183 -21 -266 9 -17 12 -16 34 14 43 58 57
157 33 230 -17 50 -24 54 -46 22z"/>
<path d="M2540 1463 c-25 -32 -20 -69 12 -95 28 -25 55 -22 83 7 30 30 31 54
4 89 -28 35 -70 35 -99 -1z"/>
<path d="M8106 1468 c-34 -48 -4 -118 51 -118 54 0 86 86 45 123 -27 25 -78
22 -96 -5z"/>
<path d="M3206 1345 c-39 -14 -107 -63 -113 -82 -10 -28 93 -39 161 -18 51 16
126 67 126 85 0 12 -59 30 -99 30 -20 -1 -53 -7 -75 -15z"/>
<path d="M7392 1352 c-13 -4 -23 -10 -23 -14 1 -5 1 -12 1 -17 0 -18 99 -72
151 -83 70 -14 145 3 130 30 -5 9 -34 32 -65 50 -57 35 -143 50 -194 34z"/>
<path d="M3542 1182 c4 -49 12 -79 31 -108 26 -43 81 -94 99 -94 21 0 2 116
-28 170 -26 47 -78 100 -99 100 -4 0 -6 -31 -3 -68z"/>
<path d="M7151 1215 c-43 -39 -76 -106 -86 -176 -9 -61 6 -70 53 -32 49 40 81
104 88 181 8 74 1 77 -55 27z"/>
<path d="M2676 1196 c-41 -15 -107 -64 -114 -84 -6 -19 49 -34 104 -29 58 6
115 32 158 72 27 25 28 28 12 37 -30 17 -119 19 -160 4z"/>
<path d="M7935 1203 c-53 -14 -35 -47 50 -91 39 -20 65 -26 117 -27 87 0 106
16 63 52 -61 51 -170 83 -230 66z"/>
<path d="M2986 1077 c-3 -12 -6 -45 -6 -73 0 -60 46 -163 85 -188 l24 -16 6
56 c4 30 5 69 1 87 -10 51 -46 115 -76 137 l-28 20 -6 -23z"/>
<path d="M7710 1064 c-18 -21 -39 -54 -48 -73 -17 -41 -21 -147 -5 -174 9 -17
13 -15 45 22 42 49 58 98 58 177 0 84 -10 93 -50 48z"/>
<path d="M3271 1041 c-12 -16 -21 -36 -21 -44 0 -26 40 -67 66 -67 30 0 74 41
74 70 0 29 -44 70 -74 70 -16 0 -32 -10 -45 -29z"/>
<path d="M7380 1050 c-46 -46 -8 -128 54 -116 17 3 37 14 44 23 19 26 14 70
-10 93 -28 25 -62 26 -88 0z"/>
<path d="M3999 1046 c-25 -6 -59 -22 -76 -34 -35 -25 -83 -79 -83 -93 0 -19
104 -9 155 15 45 21 135 100 124 109 -13 12 -80 14 -120 3z"/>
<path d="M6653 1053 c-30 -6 -29 -16 7 -57 44 -50 122 -86 186 -86 29 0 55 4
58 8 8 14 -73 90 -118 111 -45 21 -99 31 -133 24z"/>
<path d="M4290 987 c0 -31 31 -112 56 -149 24 -33 96 -88 117 -88 14 0 6 67
-14 110 -25 56 -73 107 -118 126 -41 17 -41 17 -41 1z"/>
<path d="M6408 989 c-20 -10 -50 -36 -67 -56 -32 -39 -71 -128 -71 -164 0 -18
2 -19 38 -4 77 33 147 136 140 210 l-3 33 -37 -19z"/>
<path d="M4802 887 c-44 -14 -112 -75 -141 -127 l-24 -43 53 6 c32 4 72 18 99
35 46 28 116 116 105 133 -7 12 -50 10 -92 -4z"/>
<path d="M5070 865 c0 -30 49 -112 89 -148 37 -33 116 -66 129 -53 12 13 -54
129 -88 156 -63 49 -130 73 -130 45z"/>
<path d="M5605 861 c-22 -10 -55 -35 -74 -56 -34 -39 -75 -119 -69 -133 7 -18
88 11 127 44 40 35 91 117 91 149 0 20 -26 19 -75 -4z"/>
<path d="M5850 888 c0 -22 54 -92 92 -121 54 -40 158 -64 158 -37 0 34 -79
118 -136 145 -53 25 -114 32 -114 13z"/>
<path d="M3485 808 c-59 -21 -158 -109 -141 -125 13 -14 105 -5 147 14 53 23
134 97 124 112 -8 14 -90 13 -130 -1z"/>
<path d="M7130 806 c0 -14 74 -87 107 -105 36 -19 107 -30 143 -22 l35 8 -51
50 c-32 32 -69 56 -99 67 -61 20 -135 22 -135 2z"/>
<path d="M4061 754 c-25 -32 -25 -36 -6 -74 20 -39 59 -49 93 -23 54 40 32
123 -33 123 -24 0 -39 -7 -54 -26z"/>
<path d="M6586 758 c-38 -54 -2 -126 58 -114 39 8 56 30 56 72 0 59 -82 88
-114 42z"/>
<path d="M3770 713 c0 -73 28 -141 80 -195 60 -62 75 -57 66 20 -11 90 -48
152 -118 197 l-28 17 0 -39z"/>
<path d="M6916 717 c-50 -47 -86 -129 -86 -195 l0 -53 31 18 c39 23 76 71 94
124 17 46 20 139 6 139 -5 0 -26 -15 -45 -33z"/>
<path d="M4909 630 c-28 -16 -43 -64 -28 -92 16 -31 28 -38 65 -38 62 0 86 69
39 115 -25 26 -49 31 -76 15z"/>
<path d="M5745 615 c-34 -33 -31 -80 7 -108 24 -18 30 -19 58 -7 68 28 57 112
-17 134 -17 5 -29 1 -48 -19z"/>
<path d="M4322 559 c-56 -28 -148 -136 -130 -154 8 -9 111 16 138 34 48 30
110 104 110 130 0 18 -73 12 -118 -10z"/>
<path d="M6316 548 c21 -41 71 -95 105 -114 35 -17 118 -36 130 -29 15 10 -17
60 -70 107 -49 44 -104 68 -155 68 l-27 0 17 -32z"/>
<path d="M4613 505 c9 -64 53 -140 101 -176 75 -55 93 -34 56 64 -21 57 -73
114 -129 142 l-34 17 6 -47z"/>
<path d="M6079 521 c-65 -41 -103 -101 -124 -195 -6 -28 -5 -29 27 -22 41 8
93 57 123 117 27 53 41 114 27 123 -5 3 -29 -7 -53 -23z"/>
<path d="M5246 483 c-60 -16 -131 -84 -161 -156 -21 -52 -20 -57 18 -50 67 12
132 68 166 143 31 69 28 76 -23 63z"/>
<path d="M5460 470 c0 -13 45 -99 62 -120 42 -50 158 -106 158 -75 0 27 -32
87 -68 127 -50 55 -152 101 -152 68z"/>
</g>
</svg>
